<mxfile host="app.diagrams.net" modified="2022-08-24T12:35:09.657Z" agent="5.0 (X11)" etag="6RgHAUa1gPmxg1qzzAbI" version="20.2.6" type="github">
  <diagram id="isC4ktoYrW1aEqAXfwk2" name="Page-1">
    <mxGraphModel dx="1971" dy="1149" grid="1" gridSize="10" guides="1" tooltips="1" connect="1" arrows="1" fold="1" page="1" pageScale="1" pageWidth="850" pageHeight="1100" math="0" shadow="0">
      <root>
        <mxCell id="0" />
        <mxCell id="1" parent="0" />
        <mxCell id="w6j-ltLkjpjj2x9BgitO-2" value="Acceuil" style="rounded=1;whiteSpace=wrap;html=1;fontStyle=1" vertex="1" parent="1">
          <mxGeometry x="10" y="80" width="120" height="60" as="geometry" />
        </mxCell>
        <mxCell id="w6j-ltLkjpjj2x9BgitO-3" value="la terrasse du cadereau" style="text;html=1;strokeColor=none;fillColor=none;align=center;verticalAlign=middle;whiteSpace=wrap;rounded=0;strokeWidth=1;fontSize=33;" vertex="1" parent="1">
          <mxGeometry x="200" y="10" width="420" height="70" as="geometry" />
        </mxCell>
        <mxCell id="w6j-ltLkjpjj2x9BgitO-4" value="boutique" style="rounded=1;whiteSpace=wrap;html=1;fontStyle=1" vertex="1" parent="1">
          <mxGeometry x="250" y="80" width="120" height="60" as="geometry" />
        </mxCell>
        <mxCell id="w6j-ltLkjpjj2x9BgitO-5" value="Restaurant" style="rounded=1;whiteSpace=wrap;html=1;fontStyle=1" vertex="1" parent="1">
          <mxGeometry x="480" y="80" width="120" height="60" as="geometry" />
        </mxCell>
        <mxCell id="w6j-ltLkjpjj2x9BgitO-6" value="Contact" style="rounded=1;whiteSpace=wrap;html=1;fontStyle=1" vertex="1" parent="1">
          <mxGeometry x="710" y="80" width="120" height="60" as="geometry" />
        </mxCell>
        <mxCell id="w6j-ltLkjpjj2x9BgitO-7" value="acceuil" style="text;html=1;align=center;verticalAlign=middle;resizable=0;points=[];autosize=1;strokeColor=none;fillColor=none;fontSize=33;fontStyle=6" vertex="1" parent="1">
          <mxGeometry y="10" width="130" height="50" as="geometry" />
        </mxCell>
        <mxCell id="w6j-ltLkjpjj2x9BgitO-9" value="" style="endArrow=classic;html=1;rounded=0;fontSize=33;exitX=0.5;exitY=1;exitDx=0;exitDy=0;" edge="1" parent="1" source="w6j-ltLkjpjj2x9BgitO-2">
          <mxGeometry width="50" height="50" relative="1" as="geometry">
            <mxPoint x="40" y="230" as="sourcePoint" />
            <mxPoint x="70" y="210" as="targetPoint" />
          </mxGeometry>
        </mxCell>
        <mxCell id="w6j-ltLkjpjj2x9BgitO-10" value="" style="endArrow=classic;html=1;rounded=0;fontSize=33;exitX=0.5;exitY=1;exitDx=0;exitDy=0;" edge="1" parent="1" source="w6j-ltLkjpjj2x9BgitO-4">
          <mxGeometry width="50" height="50" relative="1" as="geometry">
            <mxPoint x="310" y="230" as="sourcePoint" />
            <mxPoint x="310" y="200" as="targetPoint" />
          </mxGeometry>
        </mxCell>
        <mxCell id="w6j-ltLkjpjj2x9BgitO-11" value="" style="endArrow=classic;html=1;rounded=0;fontSize=33;exitX=0.5;exitY=1;exitDx=0;exitDy=0;" edge="1" parent="1" source="w6j-ltLkjpjj2x9BgitO-5">
          <mxGeometry width="50" height="50" relative="1" as="geometry">
            <mxPoint x="550" y="220" as="sourcePoint" />
            <mxPoint x="540" y="200" as="targetPoint" />
          </mxGeometry>
        </mxCell>
        <mxCell id="w6j-ltLkjpjj2x9BgitO-12" value="" style="endArrow=classic;html=1;rounded=0;fontSize=33;exitX=0.5;exitY=1;exitDx=0;exitDy=0;" edge="1" parent="1" source="w6j-ltLkjpjj2x9BgitO-6">
          <mxGeometry width="50" height="50" relative="1" as="geometry">
            <mxPoint x="770" y="240" as="sourcePoint" />
            <mxPoint x="770" y="210" as="targetPoint" />
          </mxGeometry>
        </mxCell>
        <mxCell id="w6j-ltLkjpjj2x9BgitO-15" value="titre(1)" style="swimlane;fontStyle=0;childLayout=stackLayout;horizontal=1;startSize=30;horizontalStack=0;resizeParent=1;resizeParentMax=0;resizeLast=0;collapsible=1;marginBottom=0;fontSize=17;strokeWidth=1;" vertex="1" parent="1">
          <mxGeometry y="210" width="180" height="90" as="geometry" />
        </mxCell>
        <mxCell id="w6j-ltLkjpjj2x9BgitO-16" value="button nos produit" style="text;strokeColor=none;fillColor=none;align=left;verticalAlign=middle;spacingLeft=4;spacingRight=4;overflow=hidden;points=[[0,0.5],[1,0.5]];portConstraint=eastwest;rotatable=0;fontSize=17;" vertex="1" parent="w6j-ltLkjpjj2x9BgitO-15">
          <mxGeometry y="30" width="180" height="30" as="geometry" />
        </mxCell>
        <mxCell id="w6j-ltLkjpjj2x9BgitO-17" value="Qui sommes nous" style="text;strokeColor=none;fillColor=none;align=left;verticalAlign=middle;spacingLeft=4;spacingRight=4;overflow=hidden;points=[[0,0.5],[1,0.5]];portConstraint=eastwest;rotatable=0;fontSize=17;" vertex="1" parent="w6j-ltLkjpjj2x9BgitO-15">
          <mxGeometry y="60" width="180" height="30" as="geometry" />
        </mxCell>
        <mxCell id="w6j-ltLkjpjj2x9BgitO-19" value="Categories(2)" style="rounded=1;whiteSpace=wrap;html=1;fontSize=17;strokeWidth=1;" vertex="1" parent="1">
          <mxGeometry x="240" y="200" width="120" height="60" as="geometry" />
        </mxCell>
        <mxCell id="w6j-ltLkjpjj2x9BgitO-20" value="" style="rounded=1;whiteSpace=wrap;html=1;fontSize=17;strokeWidth=1;" vertex="1" parent="1">
          <mxGeometry x="470" y="200" width="120" height="60" as="geometry" />
        </mxCell>
        <mxCell id="w6j-ltLkjpjj2x9BgitO-21" value="Pages 1 acceuil(1)" style="text;html=1;align=center;verticalAlign=middle;resizable=0;points=[];autosize=1;strokeColor=none;fillColor=none;fontSize=17;" vertex="1" parent="1">
          <mxGeometry x="-20" y="420" width="160" height="30" as="geometry" />
        </mxCell>
        <mxCell id="w6j-ltLkjpjj2x9BgitO-32" value="" style="whiteSpace=wrap;html=1;aspect=fixed;fontSize=17;strokeWidth=1;" vertex="1" parent="1">
          <mxGeometry x="120" y="460" width="480" height="480" as="geometry" />
        </mxCell>
        <mxCell id="w6j-ltLkjpjj2x9BgitO-33" value="button nos produit" style="rounded=1;whiteSpace=wrap;html=1;fontSize=17;strokeWidth=1;" vertex="1" parent="1">
          <mxGeometry x="310" y="470" width="120" height="60" as="geometry" />
        </mxCell>
        <mxCell id="w6j-ltLkjpjj2x9BgitO-37" value="" style="endArrow=classic;html=1;rounded=0;fontSize=17;" edge="1" parent="1">
          <mxGeometry width="50" height="50" relative="1" as="geometry">
            <mxPoint x="430" y="510" as="sourcePoint" />
            <mxPoint x="660" y="510" as="targetPoint" />
          </mxGeometry>
        </mxCell>
        <mxCell id="w6j-ltLkjpjj2x9BgitO-38" value="link to" style="text;html=1;strokeColor=none;fillColor=none;align=center;verticalAlign=middle;whiteSpace=wrap;rounded=0;fontSize=17;" vertex="1" parent="1">
          <mxGeometry x="450" y="480" width="60" height="30" as="geometry" />
        </mxCell>
        <mxCell id="w6j-ltLkjpjj2x9BgitO-39" value="boutique" style="rounded=1;whiteSpace=wrap;html=1;fontSize=17;strokeWidth=1;" vertex="1" parent="1">
          <mxGeometry x="660" y="480" width="120" height="60" as="geometry" />
        </mxCell>
        <mxCell id="w6j-ltLkjpjj2x9BgitO-40" value="qui sommes nous?" style="whiteSpace=wrap;html=1;aspect=fixed;fontSize=17;strokeWidth=1;" vertex="1" parent="1">
          <mxGeometry x="225" y="570" width="290" height="290" as="geometry" />
        </mxCell>
        <mxCell id="w6j-ltLkjpjj2x9BgitO-43" value="boutique(2)" style="text;html=1;strokeColor=none;fillColor=none;align=center;verticalAlign=middle;whiteSpace=wrap;rounded=0;fontSize=17;" vertex="1" parent="1">
          <mxGeometry x="10" y="1170" width="60" height="30" as="geometry" />
        </mxCell>
        <mxCell id="w6j-ltLkjpjj2x9BgitO-44" value="famille(vin)" style="whiteSpace=wrap;html=1;aspect=fixed;fontSize=17;strokeWidth=1;" vertex="1" parent="1">
          <mxGeometry x="130" y="1260" width="80" height="80" as="geometry" />
        </mxCell>
        <mxCell id="w6j-ltLkjpjj2x9BgitO-45" value="famille" style="whiteSpace=wrap;html=1;aspect=fixed;fontSize=17;strokeWidth=1;" vertex="1" parent="1">
          <mxGeometry x="220" y="1260" width="80" height="80" as="geometry" />
        </mxCell>
        <mxCell id="w6j-ltLkjpjj2x9BgitO-46" value="famille" style="whiteSpace=wrap;html=1;aspect=fixed;fontSize=17;strokeWidth=1;" vertex="1" parent="1">
          <mxGeometry x="322" y="1260" width="80" height="80" as="geometry" />
        </mxCell>
        <mxCell id="w6j-ltLkjpjj2x9BgitO-47" value="famille" style="whiteSpace=wrap;html=1;aspect=fixed;fontSize=17;strokeWidth=1;" vertex="1" parent="1">
          <mxGeometry x="411" y="1260" width="80" height="80" as="geometry" />
        </mxCell>
        <mxCell id="w6j-ltLkjpjj2x9BgitO-48" value="famille" style="whiteSpace=wrap;html=1;aspect=fixed;fontSize=17;strokeWidth=1;" vertex="1" parent="1">
          <mxGeometry x="500" y="1260" width="80" height="80" as="geometry" />
        </mxCell>
        <mxCell id="w6j-ltLkjpjj2x9BgitO-49" value="" style="endArrow=classic;html=1;rounded=0;fontSize=17;" edge="1" parent="1" source="w6j-ltLkjpjj2x9BgitO-44">
          <mxGeometry width="50" height="50" relative="1" as="geometry">
            <mxPoint x="160" y="1420" as="sourcePoint" />
            <mxPoint x="170" y="1370" as="targetPoint" />
            <Array as="points">
              <mxPoint x="170" y="1360" />
            </Array>
          </mxGeometry>
        </mxCell>
        <mxCell id="w6j-ltLkjpjj2x9BgitO-50" value="&lt;div&gt;sous familles&lt;/div&gt;&lt;div&gt;(blanc rouge rosÃ©)&lt;br&gt;&lt;/div&gt;" style="ellipse;whiteSpace=wrap;html=1;aspect=fixed;fontSize=17;strokeWidth=1;" vertex="1" parent="1">
          <mxGeometry x="100" y="1370" width="160" height="160" as="geometry" />
        </mxCell>
        <mxCell id="w6j-ltLkjpjj2x9BgitO-51" value="" style="endArrow=classic;html=1;rounded=0;fontSize=17;" edge="1" parent="1">
          <mxGeometry width="50" height="50" relative="1" as="geometry">
            <mxPoint x="175" y="1530" as="sourcePoint" />
            <mxPoint x="165" y="1660" as="targetPoint" />
          </mxGeometry>
        </mxCell>
        <mxCell id="w6j-ltLkjpjj2x9BgitO-52" value="produits(ex costiere de nimes)" style="text;html=1;align=center;verticalAlign=middle;resizable=0;points=[];autosize=1;strokeColor=none;fillColor=none;fontSize=17;" vertex="1" parent="1">
          <mxGeometry x="30" y="1670" width="250" height="30" as="geometry" />
        </mxCell>
        <mxCell id="w6j-ltLkjpjj2x9BgitO-55" value="restau(3)" style="text;html=1;align=center;verticalAlign=middle;resizable=0;points=[];autosize=1;strokeColor=none;fillColor=none;fontSize=17;" vertex="1" parent="1">
          <mxGeometry x="-35" y="1745" width="90" height="30" as="geometry" />
        </mxCell>
        <mxCell id="w6j-ltLkjpjj2x9BgitO-56" value="" style="whiteSpace=wrap;html=1;aspect=fixed;fontSize=17;strokeWidth=1;" vertex="1" parent="1">
          <mxGeometry x="110" y="1760" width="330" height="330" as="geometry" />
        </mxCell>
        <mxCell id="w6j-ltLkjpjj2x9BgitO-57" value="background picture" style="text;html=1;strokeColor=none;fillColor=none;align=center;verticalAlign=middle;whiteSpace=wrap;rounded=0;fontSize=17;" vertex="1" parent="1">
          <mxGeometry x="550" y="1780" width="60" height="30" as="geometry" />
        </mxCell>
        <mxCell id="w6j-ltLkjpjj2x9BgitO-58" value="" style="endArrow=classic;html=1;rounded=0;fontSize=17;entryX=0;entryY=0.75;entryDx=0;entryDy=0;" edge="1" parent="1" target="w6j-ltLkjpjj2x9BgitO-57">
          <mxGeometry width="50" height="50" relative="1" as="geometry">
            <mxPoint x="441" y="1825" as="sourcePoint" />
            <mxPoint x="491" y="1775" as="targetPoint" />
          </mxGeometry>
        </mxCell>
        <mxCell id="w6j-ltLkjpjj2x9BgitO-59" value="" style="whiteSpace=wrap;html=1;aspect=fixed;fontSize=17;strokeWidth=1;" vertex="1" parent="1">
          <mxGeometry x="520" y="1950" width="80" height="80" as="geometry" />
        </mxCell>
        <mxCell id="w6j-ltLkjpjj2x9BgitO-60" value="comme site web &quot;chez marianne.fr&quot;" style="text;html=1;align=center;verticalAlign=middle;resizable=0;points=[];autosize=1;strokeColor=none;fillColor=none;fontSize=17;" vertex="1" parent="1">
          <mxGeometry x="175" y="1715" width="290" height="30" as="geometry" />
        </mxCell>
        <mxCell id="w6j-ltLkjpjj2x9BgitO-61" value="Menu(btn)" style="rounded=1;whiteSpace=wrap;html=1;fontSize=17;strokeWidth=1;" vertex="1" parent="1">
          <mxGeometry x="210" y="1800" width="120" height="60" as="geometry" />
        </mxCell>
        <mxCell id="w6j-ltLkjpjj2x9BgitO-62" value="descriptif" style="rounded=1;whiteSpace=wrap;html=1;fontSize=17;strokeWidth=1;" vertex="1" parent="1">
          <mxGeometry x="210" y="1895" width="120" height="155" as="geometry" />
        </mxCell>
        <mxCell id="w6j-ltLkjpjj2x9BgitO-63" value="" style="endArrow=classic;html=1;rounded=0;fontSize=17;" edge="1" parent="1">
          <mxGeometry width="50" height="50" relative="1" as="geometry">
            <mxPoint x="330" y="1830" as="sourcePoint" />
            <mxPoint x="610" y="1870" as="targetPoint" />
          </mxGeometry>
        </mxCell>
        <mxCell id="w6j-ltLkjpjj2x9BgitO-64" value="new page Menu(5)" style="text;html=1;align=center;verticalAlign=middle;resizable=0;points=[];autosize=1;strokeColor=none;fillColor=none;fontSize=17;" vertex="1" parent="1">
          <mxGeometry x="560" y="1845" width="160" height="30" as="geometry" />
        </mxCell>
        <mxCell id="w6j-ltLkjpjj2x9BgitO-65" value="link" style="text;html=1;align=center;verticalAlign=middle;resizable=0;points=[];autosize=1;strokeColor=none;fillColor=none;fontSize=17;" vertex="1" parent="1">
          <mxGeometry x="440" y="1850" width="50" height="30" as="geometry" />
        </mxCell>
      </root>
    </mxGraphModel>
  </diagram>
</mxfile>
